<?xml version="1.0" encoding="UTF-8"?>
<svg id="Layer_2" data-name="Layer 2" xmlns="http://www.w3.org/2000/svg" viewBox="0 0 794.19 95.31">
  <defs>
    <style>
      .cls-1 {
        fill: #e00016;
      }

      .cls-1, .cls-2 {
        stroke-width: 0px;
      }

      .cls-2 {
        fill: #161616;
      }
    </style>
  </defs>
  <g id="Layer_1-2" data-name="Layer 1">
    <g>
      <path class="cls-2" d="M36.41,42.53v12.31h17.67v25.53c-1.14.19-2.52.33-4.18.46-1.67.13-3.43.24-5.31.33-1.89.09-3.65.13-5.31.13-4.28,0-7.88-.26-10.81-.78-2.93-.53-5.27-1.44-7.06-2.75-1.8-1.31-3.2-3.26-4.19-5.84-1.01-2.57-1.66-5.84-1.96-9.82-.32-3.96-.46-8.88-.46-14.73,0-6.63.23-12.05.72-16.23.48-4.19,1.33-7.5,2.55-9.89,1.23-2.41,2.97-4.12,5.23-5.17,2.28-1.05,5.2-1.69,8.78-1.9,3.58-.22,7.99-.33,13.23-.33,1.57,0,3.55.09,5.95.27,2.39.17,5.04.39,7.93.65,2.87.26,5.79.61,8.76,1.05V4.02c-2.8-.52-5.9-.98-9.3-1.37-3.4-.4-6.83-.72-10.28-1-3.44-.26-6.62-.39-9.5-.39-6.37,0-11.81.42-16.3,1.25-4.5.82-8.22,2.25-11.19,4.25-2.97,2-5.29,4.76-6.95,8.24-1.66,3.49-2.81,7.89-3.47,13.16-.65,5.29-.98,11.68-.98,19.19s.33,13.91.98,19.19c.66,5.27,1.8,9.67,3.41,13.16,1.62,3.49,3.91,6.24,6.88,8.24,2.96,2.02,6.69,3.43,11.19,4.27,4.5.82,9.98,1.24,16.43,1.24,2.8,0,5.89-.13,9.3-.39,3.42-.27,6.88-.59,10.42-1,3.53-.39,6.79-.85,9.76-1.37v-48.19h-31.96Z"/>
      <polygon class="cls-2" points="150.99 14.89 150.99 2.32 91.01 2.32 91.01 92.41 150.99 92.41 150.99 79.84 105.81 79.84 105.81 53.26 144.83 53.26 144.83 40.69 105.81 40.69 105.81 14.89 150.99 14.89"/>
      <polygon class="cls-2" points="185.16 79.45 185.16 2.32 170.36 2.32 170.36 92.41 225.11 92.41 225.11 79.45 185.16 79.45"/>
      <path class="cls-2" d="M283.37,2.32h-19.37l-32.22,90.09h14.93l7.71-22.26h37.98l7.85,22.26h15.32L283.37,2.32ZM258.62,57.59l14.41-40.99h.65l14.4,40.99h-29.46Z"/>
      <polygon class="cls-2" points="314.66 2.32 314.66 15.28 342.03 15.28 342.03 92.41 356.84 92.41 356.84 15.28 384.06 15.28 384.06 2.32 314.66 2.32"/>
      <polygon class="cls-2" points="483.85 2.32 483.85 15.28 511.21 15.28 511.21 92.41 526.01 92.41 526.01 15.28 553.24 15.28 553.24 2.32 483.85 2.32"/>
      <polygon class="cls-2" points="628.54 14.89 628.54 2.32 568.56 2.32 568.56 92.41 628.54 92.41 628.54 79.84 583.37 79.84 583.37 53.26 622.39 53.26 622.39 40.69 583.37 40.69 583.37 14.89 628.54 14.89"/>
      <path class="cls-2" d="M695.13,80.51c-3.46.26-6.62.39-9.5.39-4.8,0-8.78-.17-11.92-.53-3.14-.34-5.65-1.12-7.52-2.35-1.89-1.22-3.27-3.03-4.2-5.43-.91-2.41-1.53-5.68-1.83-9.83-.3-4.14-.46-9.27-.46-15.38s.16-11.34.46-15.45c.3-4.11.92-7.35,1.83-9.76.92-2.39,2.31-4.21,4.2-5.43,1.87-1.21,4.38-2,7.52-2.35,3.14-.35,7.12-.53,11.92-.53,1.48,0,3.23.06,5.23.13,2,.1,4.08.24,6.23.46,2.13.22,4.3.46,6.47.72V3.38c-1.74-.45-3.83-.81-6.28-1.12-2.44-.3-4.99-.53-7.65-.72-2.67-.17-5.26-.26-7.8-.26-6.46,0-11.86.42-16.23,1.25-4.37.82-7.93,2.25-10.68,4.25-2.74,2-4.84,4.73-6.28,8.19-1.43,3.44-2.42,7.83-2.94,13.16-.52,5.32-.78,11.73-.78,19.24s.26,13.92.78,19.26c.52,5.32,1.51,9.7,2.94,13.16,1.44,3.44,3.55,6.17,6.28,8.17,2.75,2.02,6.31,3.43,10.68,4.27,4.37.82,9.77,1.24,16.23,1.24,2.45,0,5-.09,7.67-.26,2.67-.19,5.27-.4,7.85-.66,2.58-.26,4.82-.56,6.75-.91v-12.05c-2.54.34-5.52.65-8.97.92"/>
      <polygon class="cls-2" points="779.39 2.32 779.39 40.57 737.74 40.57 737.74 2.32 722.95 2.32 722.95 92.41 737.74 92.41 737.74 53.52 779.39 53.52 779.39 92.41 794.19 92.41 794.19 2.32 779.39 2.32"/>
      <polygon class="cls-1" points="453.43 0 407.63 0 407.63 83.63 418.2 83.63 418.2 10.57 453.43 10.57 453.43 0"/>
      <polygon class="cls-1" points="454.55 11.26 454.55 84.74 419.32 84.74 419.32 95.31 465.12 95.31 465.12 11.26 454.55 11.26"/>
      <path class="cls-1" d="M430.6,72.32c0,3.19,2.59,5.77,5.77,5.77s5.77-2.58,5.77-5.77-2.59-5.78-5.77-5.78-5.77,2.59-5.77,5.78"/>
    </g>
  </g>
</svg>