<?xml version="1.0" standalone="no"?>
<!DOCTYPE svg PUBLIC "-//W3C//DTD SVG 20010904//EN"
 "http://www.w3.org/TR/2001/REC-SVG-20010904/DTD/svg10.dtd">
<svg version="1.0" xmlns="http://www.w3.org/2000/svg"
 width="1436.000000pt" height="1436.000000pt" viewBox="0 0 1436.000000 1436.000000"
 preserveAspectRatio="xMidYMid meet">
<metadata>
Created by potrace 1.14, written by Peter Selinger 2001-2017
</metadata>
<g transform="translate(0.000000,1436.000000) scale(0.100000,-0.100000)"
fill="#000000" stroke="none">
<path d="M2850 8060 l0 -6301 110 2 c61 1 112 0 116 -3 3 -3 19 -2 37 2 40 8
44 8 84 0 18 -4 34 -5 37 -2 8 7 284 4 296 -3 6 -3 10 -3 10 2 0 9 123 8 146
-1 8 -3 14 -2 14 2 0 8 329 7 336 -1 3 -3 19 -1 37 3 18 4 34 7 37 8 3 1 22
-3 42 -7 20 -5 40 -6 43 -3 3 3 54 5 113 4 59 -1 114 0 122 3 13 4 15 606 14
5503 l-1 5499 2636 -1 c1450 -1 2644 1 2654 3 16 3 17 49 17 797 l0 794 -3450
0 -3450 0 0 -6300z"/>
<path d="M9921 12655 c-4 -5 -5 -138 -4 -295 2 -157 3 -292 3 -300 0 -8 0
-152 0 -320 0 -168 0 -312 0 -320 0 -8 0 -152 0 -320 0 -168 0 -312 0 -320 0
-8 0 -152 0 -320 0 -168 0 -312 0 -320 0 -8 0 -152 0 -320 0 -168 0 -312 0
-320 0 -8 0 -152 0 -320 0 -168 0 -312 0 -320 0 -8 0 -152 0 -320 0 -168 0
-312 0 -320 0 -8 0 -152 0 -320 0 -168 0 -312 0 -320 0 -8 0 -152 0 -320 0
-168 0 -312 0 -320 0 -8 0 -152 0 -320 0 -168 0 -312 0 -320 0 -8 0 -152 0
-320 0 -168 0 -312 0 -320 0 -8 0 -152 0 -320 0 -168 0 -312 0 -320 0 -14 0
-614 0 -635 0 -5 -1 -81 -3 -168 -1 -99 2 -157 8 -157 6 0 6 -3 0 -8 -7 -5
-10 -93 -8 -262 3 -306 3 -252 0 -395 -2 -66 1 -126 6 -132 5 -7 6 -13 1 -13
-12 0 -11 -143 1 -152 7 -5 7 -8 0 -8 -12 0 -13 -398 -1 -418 4 -7 4 -12 -1
-12 -10 0 -10 -341 1 -358 4 -7 4 -12 -1 -12 -12 0 -10 -144 2 -152 7 -5 7 -8
0 -8 -11 0 -14 -478 -3 -496 4 -5 3 -16 -2 -24 -8 -13 -353 -15 -2647 -17
-1451 -1 -2644 -2 -2650 -2 -10 -1 -13 -167 -13 -796 l0 -795 3450 0 3450 0
-2 6332 -3 6332 -788 0 c-515 1 -791 -2 -796 -9z"/>
<path d="M7117 4334 c-1 -1 -24 -5 -52 -8 -48 -5 -90 -13 -90 -16 0 -1 -10 -3
-22 -6 -11 -2 -47 -14 -80 -26 -32 -12 -61 -21 -65 -20 -5 1 -8 -3 -8 -8 0 -5
-5 -10 -11 -10 -13 0 -142 -83 -172 -110 -11 -11 -24 -20 -29 -20 -4 0 -8 -4
-8 -9 0 -5 -17 -27 -39 -48 -21 -21 -54 -63 -74 -93 -21 -30 -41 -59 -45 -65
-7 -9 -23 -41 -27 -55 -1 -3 -9 -23 -18 -44 -10 -22 -20 -51 -24 -65 -3 -14
-8 -30 -12 -36 -3 -5 -7 -17 -8 -25 -2 -8 -6 -31 -9 -50 -9 -50 -10 -246 -1
-304 16 -105 93 -289 144 -346 13 -14 23 -28 23 -33 0 -29 233 -227 267 -227
7 0 13 -3 13 -8 0 -4 12 -12 28 -19 37 -16 85 -36 95 -38 4 -2 8 -3 10 -5 11
-9 161 -39 169 -34 4 3 8 2 8 -3 0 -4 45 -8 100 -8 55 0 100 3 100 7 0 3 7 5
17 4 22 -4 105 16 183 44 212 74 397 248 497 468 19 43 35 79 34 82 0 3 4 21
9 40 39 144 29 413 -19 515 -39 84 -61 135 -61 144 0 6 -4 11 -9 11 -5 0 -22
21 -37 48 -25 43 -123 148 -184 197 -86 69 -252 146 -343 160 -12 2 -35 6 -52
10 -29 6 -193 14 -198 9z"/>
</g>
</svg>
